<svg width="96" height="96" xmlns="http://www.w3.org/2000/svg" xmlns:xlink="http://www.w3.org/1999/xlink" xml:space="preserve" overflow="hidden"><g transform="translate(-488 -542)"><path d="M580 575.5C580 573.3 578.2 571.5 576 571.5 575.2 571.5 574.5 571.7 573.9 572.1L556.8 581.9C557 583 557 584.1 556.8 585.3 556 589 552.5 591.6 548.7 591.6L531 591.6 531 587.6 549 587.6C551.2 587.6 553 585.8 553 583.6 553 581.4 551.2 579.6 549 579.6 549 579.6 525.2 579.6 525 579.6 523.3 579.6 521.7 580.1 520.3 580.9L492 594.5 506 608.5C512.5 602 520.9 599.5 530 599.5L548.7 599.5C549.6 599.5 550.4 599.2 551.1 598.7L578.6 578.6C579.4 577.8 580 576.7 580 575.5Z" fill="#3A426D"/></g></svg>