<svg id="svg" version="1.1" xmlns="http://www.w3.org/2000/svg" xmlns:xlink="http://www.w3.org/1999/xlink" width="400" height="105.12367491166079" viewBox="0, 0, 400,105.12367491166079"><g id="svgg"><path id="path0" d="M45.917 10.109 C 31.148 11.865,20.138 19.386,13.991 31.917 C 1.554 57.272,19.620 87.021,47.917 87.783 C 81.314 88.684,100.171 50.034,78.995 24.083 C 71.301 14.655,57.329 8.752,45.917 10.109 M52.333 12.672 C 60.965 13.436,69.096 17.266,75.320 23.500 L 77.234 25.417 76.624 25.468 C 76.288 25.496,75.467 25.434,74.799 25.330 C 69.313 24.474,67.340 25.472,65.344 30.109 C 64.026 33.169,63.556 34.080,62.305 36.000 C 58.873 41.268,57.108 42.544,52.851 42.833 C 49.546 43.057,47.751 44.161,46.345 46.832 L 45.700 48.059 45.161 47.520 C 44.193 46.552,44.593 45.057,46.695 41.791 C 50.300 36.188,50.919 33.439,49.292 30.250 C 47.879 27.481,45.170 26.580,38.622 26.701 L 35.994 26.750 35.539 26.185 C 35.288 25.874,33.829 23.961,32.297 21.935 L 29.510 18.250 29.880 17.959 C 30.084 17.799,31.375 17.106,32.750 16.419 C 38.885 13.352,45.567 12.074,52.333 12.672 M30.415 23.602 C 35.072 29.791,34.168 29.228,39.500 29.262 C 44.690 29.295,45.769 29.557,46.849 31.047 C 48.354 33.126,47.827 35.349,44.645 40.333 C 41.796 44.797,41.447 47.282,43.384 49.306 C 45.303 51.311,47.004 50.906,48.598 48.066 C 49.827 45.875,50.385 45.553,53.339 45.327 C 56.665 45.073,58.612 44.194,60.921 41.906 C 62.976 39.868,65.977 35.266,67.025 32.546 C 68.841 27.829,69.811 27.150,73.846 27.765 C 74.951 27.934,76.213 28.004,77.315 27.958 L 79.046 27.886 80.028 29.401 C 82.707 33.538,84.607 38.514,85.410 43.500 C 85.854 46.251,85.816 46.477,84.750 47.485 C 82.629 49.492,79.615 49.642,74.870 47.978 C 74.071 47.698,72.679 47.211,71.777 46.897 C 66.672 45.116,64.673 46.984,65.737 52.542 C 66.918 58.716,72.968 67.638,77.983 70.600 C 78.662 71.001,78.686 70.932,77.275 72.619 C 71.353 79.697,63.048 84.280,53.797 85.575 L 53.010 85.686 53.740 84.301 C 55.466 81.031,55.829 77.746,54.926 73.583 C 54.342 70.894,54.608 69.962,56.187 69.156 C 59.348 67.544,61.645 62.415,61.017 58.371 C 60.331 53.946,58.969 53.100,50.500 51.835 C 47.736 51.422,44.539 50.638,42.000 49.750 C 35.792 47.580,31.987 47.905,29.271 50.839 C 24.967 55.489,25.409 67.113,30.068 71.764 C 32.035 73.728,34.087 74.485,37.500 74.504 C 38.691 74.511,39.515 74.605,40.080 74.799 C 40.949 75.097,40.821 74.959,43.610 78.583 C 44.033 79.133,44.809 80.483,45.333 81.583 C 45.857 82.683,46.627 84.090,47.045 84.708 L 47.804 85.833 47.027 85.830 C 43.211 85.814,37.328 84.253,32.917 82.087 C 9.022 70.350,5.184 38.054,25.654 20.977 C 26.517 20.256,27.276 19.667,27.339 19.667 C 27.402 19.667,28.786 21.438,30.415 23.602 M331.901 28.756 L 331.452 29.345 331.804 30.556 C 332.024 31.315,332.217 32.668,332.319 34.176 C 332.412 35.548,332.701 37.659,332.989 39.083 C 333.268 40.458,333.722 42.858,333.998 44.417 C 334.274 45.975,334.546 47.456,334.603 47.708 C 334.737 48.306,334.512 48.288,333.906 47.655 C 330.125 43.706,325.417 47.413,326.334 53.618 C 327.061 58.541,331.713 60.742,336.334 58.350 C 336.905 58.055,336.924 58.056,337.175 58.379 C 337.451 58.736,337.944 58.786,339.137 58.578 C 340.108 58.409,340.418 57.935,340.254 56.872 C 340.104 55.903,340.104 55.245,340.253 54.556 C 340.350 54.110,340.302 53.987,339.942 53.751 C 339.708 53.598,339.428 53.198,339.320 52.861 C 339.212 52.525,339.065 52.175,338.993 52.083 C 338.922 51.992,338.591 50.679,338.258 49.167 C 337.925 47.654,337.540 45.929,337.403 45.333 C 337.266 44.737,336.898 42.563,336.586 40.500 C 335.009 30.080,334.843 29.239,334.237 28.585 C 333.606 27.904,332.488 27.986,331.901 28.756 M118.871 29.708 C 118.361 30.335,118.131 31.347,118.044 33.361 L 117.953 35.473 117.018 35.565 C 116.504 35.616,115.146 35.702,114.000 35.757 C 111.718 35.867,108.962 36.221,107.828 36.549 C 107.150 36.745,107.076 36.734,106.685 36.371 C 106.067 35.798,105.169 35.907,104.836 36.595 L 104.589 37.108 100.836 37.484 C 98.772 37.690,96.882 37.936,96.636 38.029 C 96.353 38.136,95.923 38.144,95.469 38.050 C 94.271 37.803,93.667 38.262,93.667 39.417 C 93.667 41.266,94.949 41.489,101.325 40.749 C 103.291 40.520,104.914 40.333,104.931 40.333 C 104.947 40.333,105.001 40.465,105.050 40.625 C 105.231 41.217,106.702 46.143,107.252 48.000 C 107.836 49.972,109.183 53.747,109.493 54.282 C 110.463 55.952,112.174 61.340,112.257 62.987 C 112.329 64.410,112.542 64.733,113.406 64.733 C 115.333 64.733,115.661 61.722,114.183 57.604 C 114.015 57.134,113.650 56.103,113.372 55.312 C 113.095 54.521,112.752 53.621,112.610 53.312 C 112.469 53.003,112.119 52.112,111.834 51.333 C 111.548 50.554,111.208 49.673,111.077 49.375 C 110.946 49.078,110.542 47.803,110.178 46.542 C 109.815 45.281,109.222 43.237,108.861 42.000 L 108.204 39.750 110.060 39.292 C 111.081 39.039,113.004 38.716,114.333 38.573 C 115.662 38.429,117.133 38.270,117.601 38.219 L 118.452 38.125 118.559 38.938 C 118.618 39.384,118.853 41.587,119.082 43.833 C 119.310 46.079,119.575 48.329,119.669 48.833 C 119.763 49.337,119.987 50.800,120.167 52.083 C 120.709 55.953,121.599 58.044,122.942 58.605 C 124.072 59.077,124.376 58.873,125.081 57.167 C 125.328 56.571,125.670 55.783,125.842 55.417 C 126.014 55.050,126.278 54.450,126.429 54.083 L 126.703 53.417 126.893 53.917 C 128.026 56.888,130.455 57.762,132.336 55.875 C 134.059 54.148,134.278 53.212,133.095 52.637 C 132.226 52.215,131.357 52.352,131.090 52.953 C 130.737 53.747,129.938 51.590,129.194 47.833 C 129.100 47.357,128.941 47.180,128.331 46.869 C 126.775 46.077,126.128 46.519,125.090 49.083 C 124.830 49.725,124.518 50.475,124.396 50.750 C 124.273 51.025,124.070 51.550,123.944 51.917 L 123.714 52.583 123.607 52.083 C 123.549 51.808,123.352 50.458,123.172 49.083 C 122.357 42.894,122.010 40.340,121.846 39.333 C 121.564 37.602,121.532 37.669,122.625 37.650 C 123.914 37.628,124.325 37.492,124.726 36.955 C 125.503 35.913,124.329 34.890,122.547 35.057 L 121.510 35.153 121.533 33.535 C 121.572 30.762,119.933 28.405,118.871 29.708 M23.812 33.419 C 20.827 34.371,20.174 38.668,22.735 40.507 L 23.467 41.033 23.067 41.623 C 22.156 42.966,22.575 44.353,24.120 45.109 C 25.852 45.956,30.332 45.781,31.748 44.811 C 36.039 41.871,28.999 31.764,23.812 33.419 M186.737 33.848 C 185.294 35.443,188.335 55.367,190.755 60.176 C 191.413 61.483,191.646 61.700,192.392 61.700 C 194.178 61.700,194.174 61.556,192.164 53.583 C 191.269 50.033,190.452 44.737,189.837 38.500 C 189.424 34.306,188.108 32.332,186.737 33.848 M300.709 33.830 C 299.444 35.008,301.582 51.500,303.854 58.083 C 304.861 61.000,305.389 61.745,306.431 61.716 C 307.786 61.677,307.902 61.083,307.162 58.000 C 306.132 53.708,305.147 49.386,304.998 48.500 C 304.747 47.018,304.034 41.037,303.924 39.500 C 303.593 34.894,302.201 32.439,300.709 33.830 M177.706 34.515 C 172.583 35.590,168.094 38.023,167.739 39.915 C 167.347 42.007,169.184 43.353,170.157 41.687 C 170.834 40.527,171.351 40.269,171.136 41.198 C 170.523 43.847,171.370 49.866,172.799 53.010 C 172.984 53.417,173.323 54.175,173.553 54.695 C 173.959 55.615,174.992 57.486,175.745 58.667 C 177.400 61.261,177.907 62.157,178.274 63.131 C 178.795 64.516,178.918 64.667,179.529 64.667 C 181.181 64.667,181.731 63.402,180.927 61.448 C 180.505 60.422,180.440 60.311,178.785 57.833 L 177.728 56.250 178.280 55.704 C 178.585 55.403,178.833 55.028,178.833 54.870 C 178.834 54.542,179.750 52.542,180.073 52.167 C 181.225 50.827,183.408 45.469,183.774 43.083 C 184.788 36.478,182.661 33.474,177.706 34.515 M291.417 34.574 C 284.885 36.057,280.554 39.015,281.687 41.219 C 282.427 42.659,283.457 42.891,284.044 41.750 C 284.186 41.475,284.478 41.086,284.692 40.885 L 285.083 40.520 285.083 44.052 C 285.083 47.656,285.323 49.618,285.923 50.917 C 286.050 51.192,286.374 52.017,286.644 52.750 C 287.121 54.050,289.004 57.736,289.668 58.669 C 289.851 58.925,290.000 59.191,290.000 59.260 C 290.000 59.329,290.175 59.617,290.388 59.901 C 291.089 60.831,292.038 62.565,292.405 63.583 C 293.107 65.534,295.646 64.637,295.259 62.575 C 295.156 62.023,293.770 59.189,293.510 59.000 C 293.448 58.954,293.123 58.463,292.790 57.908 C 292.456 57.353,292.029 56.760,291.841 56.590 L 291.499 56.280 291.984 55.985 C 292.336 55.771,292.542 55.446,292.733 54.803 C 292.879 54.316,293.411 53.204,293.917 52.333 C 298.420 44.582,299.264 38.143,296.167 35.167 C 295.049 34.093,294.071 33.971,291.417 34.574 M252.928 34.654 C 252.410 35.226,252.931 40.671,253.735 43.083 C 253.855 43.443,253.933 43.394,250.583 45.043 C 249.095 45.775,248.090 46.309,246.276 47.333 L 245.333 47.865 245.333 47.291 C 245.333 45.096,241.404 42.957,239.270 43.990 C 233.816 46.631,233.591 57.838,238.938 60.523 C 242.652 62.387,250.822 58.750,248.281 56.362 C 247.723 55.838,247.861 55.796,243.850 57.724 C 241.045 59.073,237.727 55.935,238.090 52.278 L 238.203 51.139 238.516 51.653 C 239.092 52.600,241.284 52.114,243.046 50.650 L 243.567 50.217 243.914 50.733 C 244.696 51.897,245.471 51.767,248.268 49.998 C 250.731 48.441,252.943 47.113,253.764 46.699 L 254.444 46.355 254.740 47.636 C 254.903 48.340,255.171 49.329,255.336 49.833 C 255.807 51.278,256.163 53.272,256.308 55.279 C 256.479 57.640,257.029 58.555,258.228 58.467 C 259.947 58.341,260.042 55.279,258.505 49.583 C 257.616 46.292,257.321 45.125,257.367 45.091 C 257.394 45.070,258.242 44.652,259.250 44.160 C 262.719 42.469,264.165 41.289,263.835 40.420 C 263.524 39.602,262.643 39.743,259.787 41.070 C 257.372 42.191,256.672 42.476,256.609 42.364 C 256.521 42.206,256.072 40.278,255.593 38.000 C 255.045 35.398,254.900 34.865,254.663 34.579 C 254.364 34.219,253.280 34.266,252.928 34.654 M26.381 36.104 C 28.900 37.373,31.617 41.726,30.430 42.594 C 29.754 43.088,26.290 43.302,25.625 42.891 C 25.549 42.844,25.798 42.531,26.176 42.195 C 27.472 41.043,27.150 40.125,25.007 38.871 C 23.736 38.126,23.583 37.913,23.737 37.092 C 23.996 35.713,24.918 35.368,26.381 36.104 M180.031 37.655 C 182.006 39.209,180.747 45.435,177.474 50.304 C 177.001 51.008,176.488 51.865,176.333 52.209 L 176.053 52.834 175.611 51.376 C 175.208 50.046,174.839 48.472,174.349 46.000 C 174.249 45.496,174.125 44.183,174.073 43.083 C 173.935 40.156,173.812 39.845,172.780 39.821 C 172.294 39.809,172.340 39.765,173.338 39.279 C 176.835 37.578,179.202 37.003,180.031 37.655 M293.743 37.437 C 295.250 38.015,295.026 43.702,293.369 46.954 C 292.683 48.299,292.169 49.207,291.926 49.500 C 291.813 49.637,291.431 50.237,291.078 50.833 C 290.726 51.429,290.389 51.954,290.331 52.000 C 290.273 52.046,290.173 52.225,290.109 52.399 C 289.947 52.836,289.923 52.787,289.419 51.000 C 288.402 47.393,288.000 44.877,288.000 42.112 C 288.000 40.440,287.676 39.833,286.784 39.833 L 286.259 39.833 286.637 39.569 C 286.845 39.423,287.480 39.119,288.049 38.892 C 288.618 38.666,289.308 38.378,289.583 38.252 C 290.881 37.660,293.161 37.214,293.743 37.437 M347.500 43.108 C 342.855 44.622,340.709 53.919,343.851 58.919 C 344.920 60.621,346.714 61.573,348.161 61.206 L 348.819 61.039 348.054 62.134 C 347.633 62.736,346.943 63.945,346.520 64.821 L 345.750 66.413 345.750 68.332 C 345.750 75.597,355.091 76.149,356.339 68.957 C 356.671 67.043,355.816 61.946,354.815 59.879 L 354.470 59.167 354.902 58.654 C 355.139 58.372,355.333 58.014,355.333 57.859 C 355.333 57.508,354.385 56.333,354.102 56.333 C 353.709 56.333,353.415 54.219,353.452 51.667 C 353.504 48.107,353.226 47.483,351.579 47.458 C 350.160 47.437,349.815 48.368,349.858 52.093 L 349.881 54.104 349.175 55.427 C 347.837 57.934,347.412 58.297,346.660 57.577 C 343.972 55.002,346.665 44.827,349.726 45.991 C 350.553 46.305,351.459 44.874,350.980 44.012 C 350.595 43.318,348.513 42.778,347.500 43.108 M140.188 43.846 C 136.997 45.123,134.743 51.724,136.065 55.917 C 137.574 60.700,141.030 62.240,145.974 60.333 C 147.941 59.575,149.821 57.708,149.391 56.941 C 148.692 55.696,148.778 55.682,144.515 57.724 C 141.679 59.083,138.226 55.630,138.791 52.000 L 138.933 51.083 139.210 51.604 C 140.268 53.594,146.000 49.999,146.000 47.346 C 146.000 45.241,142.288 43.005,140.188 43.846 M314.493 44.127 C 309.218 47.528,309.170 57.807,314.417 60.552 C 318.030 62.442,326.310 58.738,323.781 56.362 C 323.221 55.836,323.421 55.774,319.348 57.724 C 317.249 58.729,313.970 56.588,313.594 53.966 C 313.478 53.158,313.657 50.893,313.802 51.326 C 314.608 53.720,320.833 50.241,320.833 47.396 C 320.833 44.930,316.619 42.757,314.493 44.127 M362.676 43.840 C 358.560 45.588,356.694 54.616,359.667 58.401 C 361.258 60.427,362.526 61.086,364.819 61.078 C 368.970 61.065,373.229 58.036,371.448 56.362 C 370.889 55.837,371.047 55.789,367.022 57.721 C 366.298 58.069,364.832 57.942,363.917 57.452 C 361.957 56.405,361.337 55.296,361.336 52.833 L 361.335 51.250 361.731 51.745 C 363.017 53.353,368.500 49.867,368.500 47.441 C 368.500 45.265,364.763 42.954,362.676 43.840 M219.871 45.001 C 219.058 45.496,218.939 45.964,218.927 48.701 L 218.917 51.152 218.540 51.057 C 218.025 50.928,217.535 51.288,216.660 52.439 C 213.562 56.515,209.497 57.826,207.046 55.540 C 205.847 54.421,205.634 53.762,205.537 50.870 C 205.454 48.375,205.250 47.833,204.394 47.833 C 204.233 47.833,204.167 47.597,204.167 47.025 C 204.167 45.422,203.736 44.833,202.564 44.833 C 199.344 44.833,196.011 52.656,197.298 57.192 C 198.236 60.496,200.334 60.538,202.499 57.296 C 202.866 56.746,203.167 56.381,203.167 56.485 C 203.167 57.515,206.669 59.671,208.750 59.921 C 210.495 60.131,214.038 59.062,215.171 57.983 C 215.306 57.855,215.679 57.554,216.000 57.315 C 216.875 56.661,217.619 55.858,218.327 54.801 C 219.087 53.665,219.164 53.705,219.175 55.236 C 219.199 58.529,219.640 59.552,220.994 59.457 C 221.875 59.395,223.245 57.296,223.989 54.868 C 224.289 53.886,224.573 52.971,224.618 52.833 C 224.664 52.695,224.790 52.925,224.901 53.345 C 225.870 57.048,230.554 59.567,232.728 57.556 C 234.135 56.254,233.603 54.556,231.933 55.017 C 229.379 55.722,227.554 53.304,226.825 48.250 C 226.589 46.617,226.465 46.371,225.719 46.060 C 224.197 45.424,223.667 46.207,222.153 51.333 L 221.685 52.917 221.676 48.964 C 221.665 44.351,221.507 44.003,219.871 45.001 M241.954 47.286 C 242.084 47.626,241.615 48.023,240.125 48.830 C 238.625 49.643,238.606 49.627,239.532 48.307 C 240.474 46.964,241.641 46.472,241.954 47.286 M142.612 47.264 C 142.752 47.630,142.303 48.014,140.793 48.819 L 139.502 49.506 139.850 48.878 C 140.701 47.338,142.285 46.413,142.612 47.264 M317.422 47.175 C 317.631 47.513,317.068 48.032,315.705 48.759 L 314.328 49.493 314.595 48.978 C 315.352 47.514,316.987 46.471,317.422 47.175 M365.088 47.174 C 365.299 47.516,364.680 48.095,363.334 48.812 C 361.803 49.628,361.759 49.527,362.975 48.000 C 363.783 46.985,364.740 46.611,365.088 47.174 M71.127 49.246 C 76.429 51.136,77.679 51.461,80.250 51.618 C 82.077 51.729,83.475 51.417,84.875 50.584 L 85.833 50.014 85.833 51.472 C 85.833 56.546,82.821 65.890,80.245 68.804 C 80.121 68.945,79.034 68.211,77.710 67.094 C 72.608 62.790,68.167 54.882,68.167 50.104 C 68.167 48.453,68.572 48.335,71.127 49.246 M331.380 49.398 C 332.274 49.785,334.025 51.910,335.106 53.921 C 335.796 55.206,335.786 55.249,334.712 55.595 C 331.037 56.776,328.863 54.786,329.657 50.965 C 329.980 49.406,330.437 48.991,331.380 49.398 M201.842 51.121 C 201.659 52.129,201.116 53.666,200.618 54.583 L 200.347 55.083 200.340 54.205 C 200.334 53.382,200.704 52.080,201.411 50.436 C 201.824 49.477,202.069 49.866,201.842 51.121 M40.750 51.965 C 44.567 53.243,46.384 53.682,51.217 54.491 C 55.897 55.275,56.907 55.523,57.459 56.031 C 59.929 58.301,58.267 65.248,54.836 66.999 C 52.245 68.321,51.611 70.323,52.477 74.449 C 53.141 77.611,52.854 80.348,51.590 82.927 C 50.356 85.443,50.010 85.221,47.572 80.354 C 46.313 77.840,45.893 77.197,44.009 74.885 C 42.075 72.512,41.438 72.226,37.583 71.997 C 33.990 71.784,32.805 71.299,31.296 69.423 C 28.354 65.764,27.957 57.001,30.563 53.220 C 32.412 50.537,35.388 50.170,40.750 51.965 M352.688 64.167 C 353.692 68.426,353.075 70.784,350.937 70.865 C 348.254 70.966,347.970 67.173,350.414 63.881 C 350.740 63.442,351.212 62.775,351.462 62.399 L 351.917 61.715 352.135 62.232 C 352.256 62.517,352.504 63.387,352.688 64.167 " stroke="none" fill="#3c446c" fill-rule="evenodd"></path><path id="path1" d="M46.833 15.115 C 43.848 15.340,39.505 16.270,38.392 16.922 C 35.992 18.329,35.285 21.456,36.850 23.740 L 37.236 24.303 41.076 24.376 C 49.222 24.529,52.121 26.923,52.833 34.083 C 53.059 36.364,53.228 37.013,53.706 37.446 C 56.059 39.575,59.720 36.612,62.444 30.374 C 63.742 27.400,64.229 26.545,65.408 25.167 C 67.760 22.415,67.216 20.062,63.838 18.382 C 59.004 15.979,52.343 14.699,46.833 15.115 M21.409 21.375 L 20.750 22.083 21.458 21.425 C 21.848 21.062,22.167 20.743,22.167 20.716 C 22.167 20.590,22.022 20.716,21.409 21.375 M33.897 53.640 C 30.065 55.447,30.652 66.952,34.681 69.007 C 35.159 69.251,35.910 69.361,37.942 69.484 C 42.095 69.736,43.580 70.384,45.496 72.785 C 46.986 74.652,48.180 75.500,49.317 75.500 C 49.798 75.500,50.150 75.045,49.937 74.699 C 49.708 74.330,49.535 71.265,49.683 70.216 C 49.997 67.991,51.341 66.008,53.161 65.086 C 57.392 62.942,55.877 57.680,50.833 57.000 C 47.357 56.531,42.256 55.253,38.833 53.994 C 36.960 53.305,34.919 53.159,33.897 53.640 M73.831 53.642 C 72.469 54.366,72.089 56.010,72.942 57.485 C 77.558 65.465,80.273 65.537,82.259 57.734 L 82.560 56.552 82.155 55.737 C 81.636 54.694,81.044 54.362,79.359 54.170 C 78.621 54.085,77.370 53.863,76.579 53.675 C 74.814 53.256,74.563 53.253,73.831 53.642 " stroke="none" fill="#9bcb8b" fill-rule="evenodd"></path><path id="path2" d="M45.417 12.696 C 40.480 13.193,32.510 15.893,29.880 17.959 L 29.510 18.250 32.297 21.935 C 33.829 23.961,35.288 25.874,35.539 26.185 L 35.994 26.750 38.622 26.701 C 45.170 26.580,47.879 27.481,49.292 30.250 C 50.919 33.439,50.300 36.188,46.695 41.791 C 44.593 45.057,44.193 46.552,45.161 47.520 L 45.700 48.059 46.345 46.832 C 47.751 44.161,49.546 43.057,52.851 42.833 C 57.108 42.544,58.873 41.268,62.305 36.000 C 63.556 34.080,64.026 33.169,65.344 30.109 C 67.340 25.472,69.313 24.474,74.799 25.330 C 75.467 25.434,76.288 25.496,76.624 25.468 L 77.234 25.417 75.320 23.500 C 67.399 15.566,56.395 11.591,45.417 12.696 M52.000 15.176 C 57.886 15.714,64.818 18.105,66.115 20.046 C 67.217 21.695,66.993 23.312,65.408 25.167 C 64.229 26.545,63.742 27.400,62.444 30.374 C 59.720 36.612,56.059 39.575,53.706 37.446 C 53.228 37.013,53.059 36.364,52.833 34.083 C 52.121 26.923,49.222 24.529,41.076 24.376 L 37.236 24.303 36.850 23.740 C 35.285 21.456,35.992 18.329,38.392 16.922 C 40.573 15.644,47.455 14.761,52.000 15.176 M40.292 29.287 C 40.590 29.324,41.077 29.324,41.375 29.287 C 41.673 29.250,41.429 29.220,40.833 29.220 C 40.237 29.220,39.994 29.250,40.292 29.287 M24.253 36.065 C 23.248 37.070,23.494 37.984,25.007 38.871 C 27.150 40.125,27.472 41.043,26.176 42.195 C 25.384 42.898,25.410 42.936,26.775 43.090 C 29.062 43.349,30.737 42.770,30.698 41.734 C 30.592 38.903,25.710 34.609,24.253 36.065 M68.275 48.912 C 67.361 51.293,70.127 58.330,73.805 62.984 C 75.974 65.728,79.860 69.240,80.245 68.804 C 82.821 65.890,85.833 56.546,85.833 51.472 L 85.833 50.014 84.875 50.584 C 83.475 51.417,82.077 51.729,80.250 51.618 C 77.679 51.461,76.429 51.136,71.127 49.246 C 69.532 48.677,68.415 48.547,68.275 48.912 M65.379 49.833 C 65.379 50.246,65.411 50.415,65.451 50.208 C 65.491 50.002,65.491 49.665,65.451 49.458 C 65.411 49.252,65.379 49.421,65.379 49.833 M33.477 51.083 C 26.630 53.291,27.438 69.610,34.498 71.678 C 34.820 71.772,36.208 71.916,37.583 71.997 C 41.438 72.226,42.075 72.512,44.009 74.885 C 45.893 77.197,46.313 77.840,47.572 80.354 C 50.010 85.221,50.356 85.443,51.590 82.927 C 52.854 80.348,53.141 77.611,52.477 74.449 C 51.611 70.323,52.245 68.321,54.836 66.999 C 58.267 65.248,59.929 58.301,57.459 56.031 C 56.907 55.523,55.897 55.275,51.217 54.491 C 46.384 53.682,44.567 53.243,40.750 51.965 C 37.340 50.824,35.118 50.554,33.477 51.083 M38.833 53.994 C 42.256 55.253,47.357 56.531,50.833 57.000 C 55.877 57.680,57.392 62.942,53.161 65.086 C 51.341 66.008,49.997 67.991,49.683 70.216 C 49.535 71.265,49.708 74.330,49.937 74.699 C 50.150 75.045,49.798 75.500,49.317 75.500 C 48.180 75.500,46.986 74.652,45.496 72.785 C 43.580 70.384,42.095 69.736,37.942 69.484 C 33.265 69.200,31.768 67.400,31.402 61.617 C 30.958 54.615,33.482 52.026,38.833 53.994 M76.579 53.675 C 77.370 53.863,78.621 54.085,79.359 54.170 C 81.044 54.362,81.636 54.694,82.155 55.737 L 82.560 56.552 82.259 57.734 C 80.273 65.537,77.558 65.465,72.942 57.485 C 72.089 56.010,72.469 54.366,73.831 53.642 C 74.563 53.253,74.814 53.256,76.579 53.675 M22.993 75.042 C 23.402 75.477,23.758 75.833,23.785 75.833 C 23.910 75.833,23.778 75.684,23.042 74.993 L 22.250 74.250 22.993 75.042 M76.409 76.542 L 75.750 77.250 76.458 76.591 C 77.117 75.978,77.243 75.833,77.117 75.833 C 77.090 75.833,76.771 76.152,76.409 76.542 " stroke="none" fill="#83bb7d" fill-rule="evenodd"></path><path id="path3" d="M43.750 0.185 C 41.286 0.416,35.348 1.682,34.083 2.247 C 33.808 2.370,33.246 2.558,32.833 2.666 C 30.947 3.159,26.310 5.347,23.403 7.116 C 18.607 10.033,13.021 15.053,10.098 19.072 C 9.831 19.439,9.546 19.817,9.466 19.911 C 7.421 22.328,4.123 28.508,2.828 32.352 C 2.538 33.212,2.235 34.067,2.154 34.250 C 1.812 35.028,0.811 39.436,0.375 42.083 C -0.017 44.464,-0.018 53.361,0.374 55.750 C 0.851 58.662,1.752 62.611,2.161 63.583 C 2.238 63.767,2.539 64.629,2.831 65.500 C 3.122 66.371,3.497 67.383,3.664 67.750 C 4.663 69.948,6.288 73.185,6.792 73.985 C 7.816 75.608,9.371 77.898,9.819 78.439 C 10.056 78.726,10.737 79.568,11.333 80.310 C 12.808 82.146,16.793 86.053,18.411 87.249 C 18.774 87.518,19.187 87.838,19.327 87.961 C 21.547 89.893,27.709 93.309,31.423 94.667 C 32.244 94.968,33.150 95.314,33.434 95.436 C 38.666 97.691,50.893 98.511,58.083 97.091 C 60.435 96.626,64.455 95.569,64.750 95.338 C 64.842 95.266,65.104 95.154,65.333 95.090 C 68.694 94.140,75.962 90.252,78.667 87.957 C 78.804 87.840,79.217 87.523,79.583 87.252 C 85.041 83.221,91.565 74.601,94.181 67.963 C 94.366 67.494,94.656 66.804,94.826 66.430 C 94.995 66.056,95.374 64.925,95.667 63.917 C 95.960 62.908,96.262 61.962,96.338 61.814 C 97.567 59.403,98.370 48.684,97.713 43.446 L 97.424 41.143 96.670 41.182 C 94.456 41.298,93.667 40.843,93.667 39.452 C 93.667 38.321,94.175 37.762,95.068 37.909 C 95.720 38.017,96.684 38.038,96.776 37.946 C 96.896 37.826,95.164 31.954,94.837 31.371 C 94.748 31.213,94.478 30.596,94.238 30.000 C 92.994 26.918,91.409 24.096,88.715 20.167 C 86.721 17.260,82.024 12.421,79.083 10.245 C 78.717 9.974,78.379 9.708,78.333 9.655 C 78.265 9.576,76.675 8.451,75.937 7.959 C 74.316 6.879,70.530 4.818,69.100 4.236 C 68.541 4.009,67.896 3.722,67.667 3.599 C 66.774 3.120,62.146 1.674,60.167 1.256 C 59.021 1.015,57.806 0.744,57.467 0.654 C 55.328 0.091,47.589 -0.174,43.750 0.185 M55.417 10.478 C 84.371 15.471,97.709 48.951,80.106 72.451 C 68.967 87.321,48.227 92.152,31.499 83.774 C 12.316 74.166,4.551 51.090,13.993 31.750 C 21.456 16.463,38.718 7.598,55.417 10.478 " stroke="none" fill="#ebf4f9" fill-rule="evenodd"></path><path id="path4" d="M26.974 19.969 C 26.851 20.145,26.702 20.280,26.644 20.269 C 26.138 20.178,21.647 24.672,19.833 27.084 C 2.302 50.402,17.133 82.958,46.561 85.755 C 47.828 85.876,47.801 85.945,46.972 84.721 C 46.713 84.338,45.941 82.913,45.256 81.554 C 44.572 80.195,43.674 78.671,43.262 78.167 C 42.849 77.662,42.191 76.820,41.798 76.294 C 40.730 74.864,40.198 74.660,37.119 74.499 C 31.043 74.181,27.629 70.968,26.649 64.647 C 26.544 63.970,26.425 63.304,26.383 63.167 C 26.271 62.795,26.289 57.989,26.402 57.875 C 26.456 57.822,26.500 57.577,26.500 57.332 C 26.500 57.087,26.659 56.293,26.854 55.568 C 27.048 54.843,27.214 54.119,27.223 53.958 C 27.231 53.798,27.301 53.667,27.379 53.667 C 27.456 53.667,27.473 53.592,27.417 53.500 C 27.360 53.408,27.374 53.333,27.448 53.333 C 27.523 53.333,27.798 52.921,28.061 52.419 C 28.646 51.299,30.038 49.892,31.114 49.333 C 31.556 49.104,31.972 48.842,32.039 48.750 C 32.106 48.658,32.163 48.633,32.164 48.693 C 32.166 48.754,32.560 48.698,33.042 48.570 C 34.145 48.277,36.926 48.276,38.292 48.569 C 38.865 48.691,39.333 48.755,39.333 48.709 C 39.333 48.663,39.443 48.716,39.576 48.827 C 39.710 48.938,39.897 48.980,39.993 48.921 C 40.088 48.862,40.167 48.901,40.167 49.008 C 40.167 49.115,40.274 49.161,40.406 49.111 C 40.537 49.060,40.669 49.083,40.698 49.161 C 40.726 49.239,40.900 49.328,41.083 49.360 C 41.267 49.391,41.454 49.461,41.500 49.515 C 41.546 49.570,42.067 49.776,42.658 49.974 C 44.011 50.427,44.254 50.243,43.415 49.404 C 42.491 48.480,42.099 47.478,42.149 46.167 C 42.209 44.599,42.223 44.500,42.387 44.500 C 42.469 44.500,42.494 44.392,42.444 44.261 C 42.393 44.129,42.404 43.998,42.468 43.969 C 42.572 43.922,43.725 41.636,43.690 41.546 C 43.682 41.525,43.842 41.325,44.046 41.101 C 44.564 40.533,46.556 37.208,46.556 36.911 C 46.556 36.777,46.622 36.667,46.704 36.667 C 46.786 36.667,46.807 36.592,46.750 36.500 C 46.693 36.408,46.720 36.333,46.810 36.333 C 46.999 36.333,47.428 35.069,47.585 34.048 C 47.792 32.711,46.953 30.748,45.915 30.143 C 44.821 29.503,43.656 29.355,39.478 29.321 C 34.160 29.279,34.990 29.797,30.424 23.667 C 29.161 21.971,27.983 20.456,27.807 20.301 C 27.630 20.145,27.494 19.960,27.505 19.888 C 27.548 19.611,27.186 19.666,26.974 19.969 M70.764 27.625 C 70.695 27.694,70.570 27.759,70.486 27.771 C 70.402 27.782,70.261 27.801,70.172 27.813 C 69.692 27.875,68.276 29.521,68.344 29.938 C 68.354 29.997,68.290 30.092,68.203 30.148 C 67.942 30.316,66.710 33.292,66.823 33.481 C 66.844 33.517,66.790 33.592,66.702 33.648 C 66.528 33.759,65.486 35.765,65.512 35.939 C 65.521 35.998,65.452 36.093,65.359 36.151 C 65.266 36.208,64.804 36.845,64.334 37.566 C 63.863 38.287,63.181 39.279,62.819 39.770 C 62.456 40.260,62.161 40.700,62.163 40.747 C 62.168 40.910,59.610 43.199,58.933 43.638 C 58.557 43.881,58.204 44.144,58.148 44.221 C 58.092 44.298,57.996 44.351,57.936 44.337 C 57.843 44.316,56.543 44.760,55.667 45.112 C 55.529 45.167,54.892 45.241,54.250 45.276 C 53.608 45.311,52.821 45.389,52.500 45.448 C 52.179 45.507,51.817 45.539,51.696 45.518 C 51.575 45.497,51.368 45.568,51.238 45.677 C 51.107 45.785,51.000 45.826,51.000 45.766 C 51.000 45.193,49.217 46.919,48.645 48.046 C 47.961 49.394,47.346 50.137,46.667 50.437 C 46.300 50.598,46.000 50.779,46.000 50.838 C 46.000 50.984,49.426 51.705,50.250 51.732 C 50.617 51.744,51.015 51.816,51.134 51.892 C 51.254 51.969,51.531 51.987,51.749 51.932 C 51.968 51.877,52.197 51.913,52.258 52.013 C 52.319 52.112,52.544 52.150,52.758 52.096 C 52.972 52.043,53.192 52.073,53.248 52.164 C 53.304 52.254,53.515 52.330,53.717 52.332 C 54.250 52.336,54.875 52.440,55.200 52.577 C 55.356 52.642,55.563 52.648,55.659 52.588 C 55.755 52.529,55.833 52.545,55.833 52.624 C 55.833 52.703,56.190 52.846,56.625 52.941 C 58.047 53.253,57.918 53.184,59.161 54.294 C 60.023 55.065,60.827 56.585,60.987 57.750 C 61.160 59.006,61.052 62.345,60.822 62.833 C 60.800 62.879,60.770 62.992,60.754 63.083 C 60.739 63.175,60.600 63.540,60.446 63.895 C 60.293 64.250,60.167 64.592,60.167 64.655 C 60.167 64.718,59.910 65.196,59.595 65.718 C 59.281 66.240,59.050 66.667,59.080 66.667 C 59.336 66.667,57.314 68.460,56.372 69.070 C 55.717 69.494,55.065 70.006,54.924 70.207 C 54.657 70.589,54.559 72.337,54.792 72.569 C 54.860 72.638,54.924 72.894,54.934 73.139 C 54.943 73.383,55.083 74.296,55.245 75.167 C 55.789 78.101,55.315 81.310,53.929 84.064 L 53.184 85.544 54.134 85.433 C 62.763 84.423,72.386 78.965,77.702 72.064 L 78.487 71.045 77.035 69.959 C 74.650 68.175,72.147 65.447,70.117 62.417 C 69.564 61.592,69.042 60.871,68.958 60.815 C 68.874 60.759,68.812 60.665,68.821 60.606 C 68.848 60.419,67.466 57.753,67.312 57.694 C 67.231 57.663,67.207 57.570,67.259 57.486 C 67.311 57.402,67.274 57.333,67.177 57.333 C 67.079 57.333,67.009 57.277,67.020 57.208 C 67.031 57.140,67.021 57.027,66.999 56.958 C 66.977 56.890,66.945 56.777,66.928 56.708 C 66.753 55.988,66.244 54.667,66.141 54.667 C 66.069 54.667,66.054 54.554,66.106 54.417 C 66.159 54.279,66.122 54.167,66.023 54.167 C 65.924 54.167,65.884 54.062,65.933 53.934 C 65.982 53.805,65.946 53.653,65.852 53.595 C 65.758 53.537,65.722 53.383,65.772 53.253 C 65.822 53.122,65.800 52.919,65.724 52.800 C 65.386 52.272,65.324 48.740,65.641 48.088 C 65.947 47.460,66.939 46.328,67.070 46.459 C 67.123 46.512,67.167 46.470,67.167 46.366 C 67.167 46.262,67.279 46.220,67.417 46.273 C 67.554 46.326,67.667 46.304,67.667 46.225 C 67.667 46.006,70.069 46.150,70.461 46.393 C 70.574 46.463,70.742 46.473,70.833 46.417 C 70.925 46.360,71.000 46.379,71.000 46.460 C 71.000 46.586,72.421 47.111,73.162 47.257 C 73.302 47.285,73.454 47.322,73.500 47.340 C 73.546 47.358,73.640 47.364,73.708 47.353 C 73.777 47.342,73.833 47.413,73.833 47.510 C 73.833 47.607,73.903 47.643,73.988 47.590 C 74.074 47.538,74.191 47.572,74.250 47.667 C 74.309 47.761,74.426 47.796,74.512 47.743 C 74.597 47.690,74.667 47.718,74.667 47.805 C 74.667 47.970,76.986 48.650,78.000 48.783 C 78.321 48.825,78.883 48.903,79.250 48.957 C 82.324 49.411,85.667 47.837,85.667 45.937 C 85.667 41.821,82.961 33.957,79.970 29.378 L 79.073 28.007 76.328 27.917 C 73.038 27.810,72.731 27.786,72.569 27.625 C 72.501 27.556,72.094 27.500,71.667 27.500 C 71.239 27.500,70.833 27.556,70.764 27.625 M26.261 33.411 C 26.713 33.545,27.150 33.651,27.231 33.647 C 27.313 33.642,27.425 33.701,27.481 33.777 C 27.537 33.854,28.010 34.204,28.531 34.554 C 29.336 35.096,31.808 37.500,31.560 37.500 C 31.515 37.500,31.623 37.706,31.800 37.958 C 32.171 38.484,32.864 39.797,32.967 40.167 C 33.099 40.643,33.153 43.406,33.031 43.494 C 32.964 43.543,32.775 43.793,32.612 44.050 C 31.881 45.198,30.455 45.638,27.318 45.683 C 24.661 45.721,23.057 45.035,22.654 43.689 C 22.428 42.936,22.667 41.869,23.161 41.422 C 23.486 41.128,23.482 41.117,22.846 40.657 C 21.384 39.598,20.817 38.247,21.156 36.627 C 21.266 36.102,21.332 35.650,21.303 35.623 C 21.274 35.597,21.343 35.464,21.456 35.329 C 21.569 35.194,21.859 34.837,22.101 34.536 C 23.057 33.343,24.615 32.922,26.261 33.411 M44.077 50.176 C 43.981 50.332,44.111 50.399,44.401 50.344 C 44.485 50.329,44.597 50.383,44.651 50.466 C 44.706 50.548,44.975 50.670,45.250 50.738 C 45.885 50.894,45.697 50.701,44.839 50.317 C 44.453 50.145,44.133 50.086,44.077 50.176 " stroke="none" fill="#a5d9df" fill-rule="evenodd"></path></g></svg>